<?xml version="1.0" encoding="utf-8"?>
<svg version="1.1" id="Layer_1" xmlns="http://www.w3.org/2000/svg" xmlns:xlink="http://www.w3.org/1999/xlink" x="0px" y="0px"
	 viewBox="0 0 162.81 49.69" style="enable-background:new 0 0 162.81 49.69;" xml:space="preserve">
<style type="text/css">
	.st0{fill:#FFFFFF;}
</style>
<path class="st0" d="M149.27,40.18c-2.16-1.62-4.42-3.11-6.6-4.7c-1.65-1.19-3.34-2.39-5.06-3.51c-2.89-1.9-5.56-4.15-8.42-6.09
	c-0.77-0.52-1.35-1.13-2.12-1.72C138.87,16.02,150.85,8.34,162.81,0c-8.68,0-16.97,0-25.33,0C126,7.72,114.61,15.38,103.04,23.16
	c0-7.88,0-15.51,0-23.11c-34.38,0-68.72,0-103.04,0v49.62c34.38,0,68.75,0,103.15,0c0-3.2,0-6.31,0-9.39
	c3.75-2.56,7.42-5.07,11.02-7.52c1.66,1.17,3.29,2.23,4.81,3.42c2.13,1.66,4.41,3.12,6.6,4.7c1.65,1.19,3.33,2.41,5.07,3.51
	c2.62,1.66,5.06,3.6,7.42,5.31c8.25,0,16.31,0,24.6,0c-1.56-1.09-2.94-2.04-4.31-3.01C155.32,44.53,152.25,42.42,149.27,40.18z"/>
</svg>
